<mxfile host="app.diagrams.net" modified="2020-09-22T09:17:31.748Z" agent="5.0 (X11)" etag="uVS9bYdA-tm1hypZnagz" version="13.7.3" type="github">
  <diagram id="5jZWTGuZSz8uV723l23f" name="Page-1">
    <mxGraphModel dx="801" dy="464" grid="1" gridSize="10" guides="1" tooltips="1" connect="1" arrows="1" fold="1" page="1" pageScale="1" pageWidth="827" pageHeight="1169" math="0" shadow="0">
      <root>
        <mxCell id="0" />
        <mxCell id="1" parent="0" />
        <mxCell id="VwOdzNJhB9nkIEoQ1eZF-36" value="&lt;font style=&quot;font-size: 18px&quot;&gt;...&lt;/font&gt;" style="text;html=1;align=center;verticalAlign=middle;resizable=0;points=[];autosize=1;" vertex="1" parent="1">
          <mxGeometry x="280" y="210" width="30" height="20" as="geometry" />
        </mxCell>
        <mxCell id="VwOdzNJhB9nkIEoQ1eZF-37" value="&lt;font style=&quot;font-size: 18px&quot;&gt;...&lt;/font&gt;" style="text;html=1;align=center;verticalAlign=middle;resizable=0;points=[];autosize=1;" vertex="1" parent="1">
          <mxGeometry x="480" y="210" width="30" height="20" as="geometry" />
        </mxCell>
        <mxCell id="VwOdzNJhB9nkIEoQ1eZF-1" value="" style="shape=table;html=1;whiteSpace=wrap;startSize=0;container=1;collapsible=0;childLayout=tableLayout;rowLines=1;" vertex="1" parent="1">
          <mxGeometry x="120" y="200" width="120" height="40" as="geometry" />
        </mxCell>
        <mxCell id="VwOdzNJhB9nkIEoQ1eZF-2" value="" style="shape=partialRectangle;html=1;whiteSpace=wrap;collapsible=0;dropTarget=0;pointerEvents=0;fillColor=none;top=0;left=0;bottom=0;right=0;points=[[0,0.5],[1,0.5]];portConstraint=eastwest;" vertex="1" parent="VwOdzNJhB9nkIEoQ1eZF-1">
          <mxGeometry width="120" height="40" as="geometry" />
        </mxCell>
        <mxCell id="VwOdzNJhB9nkIEoQ1eZF-3" value="" style="shape=partialRectangle;html=1;whiteSpace=wrap;connectable=0;fillColor=none;top=0;left=0;bottom=0;right=0;overflow=hidden;" vertex="1" parent="VwOdzNJhB9nkIEoQ1eZF-2">
          <mxGeometry width="40" height="40" as="geometry" />
        </mxCell>
        <mxCell id="VwOdzNJhB9nkIEoQ1eZF-4" value="" style="shape=partialRectangle;html=1;whiteSpace=wrap;connectable=0;fillColor=none;top=0;left=0;bottom=0;right=0;overflow=hidden;" vertex="1" parent="VwOdzNJhB9nkIEoQ1eZF-2">
          <mxGeometry x="40" width="40" height="40" as="geometry" />
        </mxCell>
        <mxCell id="VwOdzNJhB9nkIEoQ1eZF-5" value="" style="shape=partialRectangle;html=1;whiteSpace=wrap;connectable=0;fillColor=none;top=0;left=0;bottom=0;right=0;overflow=hidden;" vertex="1" parent="VwOdzNJhB9nkIEoQ1eZF-2">
          <mxGeometry x="80" width="40" height="40" as="geometry" />
        </mxCell>
        <mxCell id="VwOdzNJhB9nkIEoQ1eZF-27" value="" style="shape=table;html=1;whiteSpace=wrap;startSize=0;container=1;collapsible=0;childLayout=tableLayout;rowLines=1;" vertex="1" parent="1">
          <mxGeometry x="360" y="200" width="80" height="40" as="geometry" />
        </mxCell>
        <mxCell id="VwOdzNJhB9nkIEoQ1eZF-28" value="" style="shape=partialRectangle;html=1;whiteSpace=wrap;collapsible=0;dropTarget=0;pointerEvents=0;fillColor=none;top=0;left=0;bottom=0;right=0;points=[[0,0.5],[1,0.5]];portConstraint=eastwest;" vertex="1" parent="VwOdzNJhB9nkIEoQ1eZF-27">
          <mxGeometry width="80" height="40" as="geometry" />
        </mxCell>
        <mxCell id="VwOdzNJhB9nkIEoQ1eZF-29" value="" style="shape=partialRectangle;html=1;whiteSpace=wrap;connectable=0;fillColor=none;top=0;left=0;bottom=0;right=0;overflow=hidden;" vertex="1" parent="VwOdzNJhB9nkIEoQ1eZF-28">
          <mxGeometry width="40" height="40" as="geometry" />
        </mxCell>
        <mxCell id="VwOdzNJhB9nkIEoQ1eZF-30" value="" style="shape=partialRectangle;html=1;whiteSpace=wrap;connectable=0;fillColor=none;top=0;left=0;bottom=0;right=0;overflow=hidden;" vertex="1" parent="VwOdzNJhB9nkIEoQ1eZF-28">
          <mxGeometry x="40" width="40" height="40" as="geometry" />
        </mxCell>
        <mxCell id="VwOdzNJhB9nkIEoQ1eZF-39" value="1" style="text;html=1;align=center;verticalAlign=middle;resizable=0;points=[];autosize=1;" vertex="1" parent="1">
          <mxGeometry x="130" y="250" width="20" height="20" as="geometry" />
        </mxCell>
        <mxCell id="VwOdzNJhB9nkIEoQ1eZF-40" value="F" style="text;html=1;align=center;verticalAlign=middle;resizable=0;points=[];autosize=1;" vertex="1" parent="1">
          <mxGeometry x="370" y="250" width="20" height="20" as="geometry" />
        </mxCell>
        <mxCell id="VwOdzNJhB9nkIEoQ1eZF-41" value="2" style="text;html=1;align=center;verticalAlign=middle;resizable=0;points=[];autosize=1;" vertex="1" parent="1">
          <mxGeometry x="170" y="250" width="20" height="20" as="geometry" />
        </mxCell>
        <mxCell id="VwOdzNJhB9nkIEoQ1eZF-42" value="3" style="text;html=1;align=center;verticalAlign=middle;resizable=0;points=[];autosize=1;" vertex="1" parent="1">
          <mxGeometry x="210" y="250" width="20" height="20" as="geometry" />
        </mxCell>
        <mxCell id="VwOdzNJhB9nkIEoQ1eZF-43" value="F+1" style="text;html=1;align=center;verticalAlign=middle;resizable=0;points=[];autosize=1;" vertex="1" parent="1">
          <mxGeometry x="400" y="250" width="40" height="20" as="geometry" />
        </mxCell>
        <mxCell id="VwOdzNJhB9nkIEoQ1eZF-44" value="2F-1" style="text;html=1;align=center;verticalAlign=middle;resizable=0;points=[];autosize=1;" vertex="1" parent="1">
          <mxGeometry x="600" y="250" width="40" height="20" as="geometry" />
        </mxCell>
        <mxCell id="VwOdzNJhB9nkIEoQ1eZF-45" value="2F" style="text;html=1;align=center;verticalAlign=middle;resizable=0;points=[];autosize=1;" vertex="1" parent="1">
          <mxGeometry x="650" y="250" width="30" height="20" as="geometry" />
        </mxCell>
        <mxCell id="VwOdzNJhB9nkIEoQ1eZF-46" value="" style="shape=curlyBracket;whiteSpace=wrap;html=1;rounded=1;rotation=-90;" vertex="1" parent="1">
          <mxGeometry x="225" y="165" width="60" height="280" as="geometry" />
        </mxCell>
        <mxCell id="VwOdzNJhB9nkIEoQ1eZF-47" value="" style="shape=curlyBracket;whiteSpace=wrap;html=1;rounded=1;rotation=-90;" vertex="1" parent="1">
          <mxGeometry x="510" y="165" width="60" height="280" as="geometry" />
        </mxCell>
        <mxCell id="VwOdzNJhB9nkIEoQ1eZF-32" value="" style="shape=table;html=1;whiteSpace=wrap;startSize=0;container=1;collapsible=0;childLayout=tableLayout;rowLines=1;" vertex="1" parent="1">
          <mxGeometry x="600" y="200" width="80" height="40" as="geometry" />
        </mxCell>
        <mxCell id="VwOdzNJhB9nkIEoQ1eZF-33" value="" style="shape=partialRectangle;html=1;whiteSpace=wrap;collapsible=0;dropTarget=0;pointerEvents=0;fillColor=none;top=0;left=0;bottom=0;right=0;points=[[0,0.5],[1,0.5]];portConstraint=eastwest;" vertex="1" parent="VwOdzNJhB9nkIEoQ1eZF-32">
          <mxGeometry width="80" height="40" as="geometry" />
        </mxCell>
        <mxCell id="VwOdzNJhB9nkIEoQ1eZF-34" value="" style="shape=partialRectangle;html=1;whiteSpace=wrap;connectable=0;fillColor=none;top=0;left=0;bottom=0;right=0;overflow=hidden;" vertex="1" parent="VwOdzNJhB9nkIEoQ1eZF-33">
          <mxGeometry width="40" height="40" as="geometry" />
        </mxCell>
        <mxCell id="VwOdzNJhB9nkIEoQ1eZF-35" value="" style="shape=partialRectangle;html=1;whiteSpace=wrap;connectable=0;fillColor=none;top=0;left=0;bottom=0;right=0;overflow=hidden;" vertex="1" parent="VwOdzNJhB9nkIEoQ1eZF-33">
          <mxGeometry x="40" width="40" height="40" as="geometry" />
        </mxCell>
        <mxCell id="VwOdzNJhB9nkIEoQ1eZF-48" value="&lt;div&gt;Genes pertenecientes&lt;/div&gt;&lt;div&gt;al centro de la&lt;/div&gt;&lt;div&gt;clase mayoritaria&lt;/div&gt;" style="text;html=1;align=center;verticalAlign=middle;resizable=0;points=[];autosize=1;" vertex="1" parent="1">
          <mxGeometry x="155" y="335" width="150" height="50" as="geometry" />
        </mxCell>
        <mxCell id="VwOdzNJhB9nkIEoQ1eZF-49" value="&lt;div&gt;Genes pertenecientes&lt;/div&gt;&lt;div&gt;al centro de la&lt;/div&gt;&lt;div&gt;clase minoritaria&lt;/div&gt;" style="text;html=1;align=center;verticalAlign=middle;resizable=0;points=[];autosize=1;" vertex="1" parent="1">
          <mxGeometry x="460" y="335" width="150" height="50" as="geometry" />
        </mxCell>
      </root>
    </mxGraphModel>
  </diagram>
</mxfile>
